<svg width="1000" height="1000" viewBox="0 0 1000 1000" fill="none" xmlns="http://www.w3.org/2000/svg">
<ellipse cx="326" cy="364.5" rx="126" ry="126.5" fill="#D9D9D9"/>
<circle cx="388.5" cy="569.5" r="78.5" fill="#D9D9D9"/>
<circle cx="42" cy="42" r="42" transform="matrix(-1 0 0 1 526 627)" fill="#D9D9D9"/>
<circle cx="42" cy="42" r="42" transform="matrix(-1 0 0 1 536 263)" fill="#D9D9D9"/>
<ellipse cx="41.5" cy="42" rx="41.5" ry="42" transform="matrix(-1 0 0 1 437 659)" fill="#D9D9D9"/>
<circle cx="41.5" cy="41.5" r="41.5" transform="matrix(-1 0 0 1 302 491)" fill="#D9D9D9"/>
<circle cx="20" cy="20" r="20" transform="matrix(-1 0 0 1 232 458)" fill="#D9D9D9"/>
<circle cx="20" cy="20" r="20" transform="matrix(-1 0 0 1 211 504)" fill="#D9D9D9"/>
<circle cx="20" cy="20" r="20" transform="matrix(-1 0 0 1 200 418)" fill="#D9D9D9"/>
<circle cx="20" cy="20" r="20" transform="matrix(-1 0 0 1 461 451)" fill="#D9D9D9"/>
<circle cx="20" cy="20" r="20" transform="matrix(-1 0 0 1 347 648)" fill="#D9D9D9"/>
<circle cx="20" cy="20" r="20" transform="matrix(-1 0 0 1 584 273)" fill="#D9D9D9"/>
<circle cx="20" cy="20" r="20" transform="matrix(-1 0 0 1 576 661)" fill="#D9D9D9"/>
<circle cx="20" cy="20" r="20" transform="matrix(-1 0 0 1 551 703)" fill="#D9D9D9"/>
<circle cx="20" cy="20" r="20" transform="matrix(-1 0 0 1 481 723)" fill="#D9D9D9"/>
<circle cx="20" cy="20" r="20" transform="matrix(-1 0 0 1 604 703)" fill="#D9D9D9"/>
<circle cx="20" cy="20" r="20" transform="matrix(-1 0 0 1 656 683)" fill="#D9D9D9"/>
<circle cx="653.5" cy="490.5" r="186.5" fill="#D9D9D9"/>
</svg>
