<svg width="1000" height="1000" viewBox="0 0 1000 1000" fill="none" xmlns="http://www.w3.org/2000/svg">
<path d="M827.202 442.097C837.397 442.097 845.746 444.313 852.247 448.746C858.897 453.179 863.921 458.572 867.319 464.926V444.535H884.164V550.259C884.164 561.489 882.465 571.315 879.066 579.738C875.668 588.308 869.979 594.957 862 599.685C854.021 604.562 843.234 607 829.64 607C820.035 607 812.056 605.891 805.702 603.675C799.496 601.459 794.398 598.282 790.409 594.144C786.567 590.007 783.316 585.057 780.657 579.294L795.95 572.423C797.871 576.561 800.161 579.959 802.821 582.619C805.628 585.426 809.101 587.569 813.238 589.047C817.523 590.524 822.843 591.263 829.197 591.263C838.949 591.263 846.559 589.638 852.026 586.387C857.641 583.136 861.557 578.408 863.773 572.202C866.137 566.143 867.319 558.829 867.319 550.259V534.744C863.921 541.245 858.897 546.713 852.247 551.145C845.746 555.578 837.397 557.795 827.202 557.795C815.085 557.795 805.111 555.283 797.28 550.259C789.448 545.235 783.612 538.364 779.77 529.646C776.076 520.928 774.229 511.028 774.229 499.946C774.229 488.716 776.076 478.742 779.77 470.024C783.612 461.306 789.448 454.509 797.28 449.633C805.111 444.609 815.085 442.097 827.202 442.097ZM791.295 499.946C791.295 508.368 792.625 515.756 795.285 522.11C797.945 528.464 802.008 533.414 807.475 536.96C812.943 540.359 819.74 542.058 827.867 542.058C835.994 542.058 843.012 540.359 848.923 536.96C854.833 533.414 859.34 528.464 862.443 522.11C865.546 515.756 867.098 508.368 867.098 499.946C867.098 491.375 865.546 483.987 862.443 477.781C859.34 471.428 854.833 466.551 848.923 463.153C843.012 459.607 835.994 457.833 827.867 457.833C819.74 457.833 812.943 459.607 807.475 463.153C802.008 466.551 797.945 471.428 795.285 477.781C792.625 483.987 791.295 491.375 791.295 499.946Z" fill="white"/>
<path d="M731.658 556.244V498.173C731.658 485.318 729.441 475.344 725.008 468.251C720.575 461.159 712.67 457.612 701.292 457.612C693.166 457.612 685.851 459.755 679.35 464.04C672.996 468.325 667.972 474.088 664.278 481.328C660.584 488.421 658.737 496.252 658.737 504.822V556.244H641.892V445.422H658.737V468.694C661.101 464.409 664.204 460.198 668.046 456.061C672.035 451.923 676.838 448.525 682.453 445.865C688.215 443.205 694.939 441.875 702.622 441.875C714.148 441.875 723.235 444.24 729.884 448.968C736.534 453.549 741.262 460.05 744.07 468.473C747.025 476.747 748.503 486.5 748.503 497.73V556.244H731.658Z" fill="white"/>
<path d="M607.232 444.535V555.357H590.387V444.535H607.232ZM599.032 423.922C596.076 423.922 593.564 422.888 591.496 420.819C589.575 418.751 588.614 416.312 588.614 413.505C588.614 410.697 589.575 408.333 591.496 406.412C593.564 404.344 596.076 403.309 599.032 403.309C601.839 403.309 604.203 404.344 606.124 406.412C608.193 408.333 609.227 410.697 609.227 413.505C609.227 416.312 608.193 418.751 606.124 420.819C604.203 422.888 601.839 423.922 599.032 423.922Z" fill="white"/>
<path d="M487.094 444.535L521.006 532.971L552.036 444.535H569.324L530.537 555.357H513.248L480.667 471.354L448.085 555.357H430.797L392.009 444.535H409.297L440.328 532.971L474.239 444.535H487.094Z" fill="white"/>
<path d="M326.385 557.795C314.269 557.795 304.147 555.357 296.02 550.481C287.893 545.457 281.761 538.586 277.624 529.868C273.486 521.15 271.418 511.176 271.418 499.946C271.418 488.864 273.486 478.963 277.624 470.245C281.761 461.527 287.893 454.656 296.02 449.633C304.147 444.609 314.269 442.097 326.385 442.097C338.502 442.097 348.624 444.609 356.751 449.633C364.878 454.656 371.01 461.527 375.147 470.245C379.284 478.963 381.353 488.864 381.353 499.946C381.353 511.176 379.284 521.15 375.147 529.868C371.01 538.586 364.878 545.457 356.751 550.481C348.624 555.357 338.502 557.795 326.385 557.795ZM326.385 542.058C334.512 542.058 341.383 540.359 346.998 536.96C352.761 533.414 357.046 528.538 359.854 522.332C362.809 515.978 364.287 508.516 364.287 499.946C364.287 491.523 362.809 484.135 359.854 477.781C357.046 471.428 352.761 466.551 346.998 463.153C341.383 459.607 334.512 457.833 326.385 457.833C318.258 457.833 311.314 459.607 305.551 463.153C299.936 466.551 295.651 471.428 292.696 477.781C289.888 484.135 288.484 491.523 288.484 499.946C288.484 508.516 289.888 515.978 292.696 522.332C295.651 528.538 299.936 533.414 305.551 536.96C311.314 540.359 318.258 542.058 326.385 542.058Z" fill="white"/>
<path d="M115.687 460.272V444.535H131.202V439.215C131.202 428.429 132.975 419.711 136.521 413.061C140.215 406.412 145.313 401.61 151.815 398.655C158.464 395.552 166.296 394 175.309 394H178.855C187.721 394 195.331 395.552 201.685 398.655C208.038 401.61 212.915 406.412 216.313 413.061C219.712 419.711 221.411 428.429 221.411 439.215V509.255C221.411 521.962 223.701 530.68 228.282 535.409C233.01 539.989 240.398 541.836 250.446 540.95C251.333 540.802 252.367 540.654 253.549 540.507C254.879 540.211 255.766 540.063 256.209 540.063L259.09 555.135C258.056 555.431 256.874 555.652 255.544 555.8C254.214 555.948 252.811 556.096 251.333 556.243C250.003 556.391 248.821 556.539 247.787 556.687C233.158 557.278 222.298 553.805 215.205 546.269C208.112 538.733 204.566 526.617 204.566 509.92V439.437C204.566 431.901 203.458 425.991 201.241 421.705C199.173 417.273 196.217 414.096 192.376 412.175C188.534 410.254 184.027 409.293 178.855 409.293H175.309C169.99 409.293 165.261 410.254 161.124 412.175C156.987 413.948 153.736 417.051 151.372 421.484C149.155 425.917 148.047 431.901 148.047 439.437V444.535H176.196V460.272H148.047V556.243H131.202V460.272H115.687Z" fill="white"/>
</svg>
